# Blender 4.5.3 LTS
# www.blender.org
mtllib spaceship.mtl
o Cube
v 1.000000 0.765616 -1.751446
v 1.000000 0.354082 -1.751446
v 0.000000 0.208633 -1.000000
v 0.000000 1.000000 1.000000
v 0.000000 -0.598838 1.000000
v 0.000000 0.996820 -1.000000
v 4.544160 2.433502 -5.587648
v 4.544160 1.972011 -5.587648
v 4.544160 1.972011 -5.126157
v 3.126886 1.860259 -2.652198
v 3.126886 1.266854 -2.652198
v 3.126886 0.783534 -1.575473
v 0.000000 -0.798363 2.901345
v 0.000000 -0.534073 2.901345
v 0.973527 0.796985 -2.842619
v 1.000000 0.354082 -2.785712
v 0.000000 0.442001 -3.554281
v 0.000000 0.208633 -3.537158
v 0.759019 1.000000 -4.641063
v 0.759019 0.569169 -4.641063
v 0.000000 0.180504 -4.641063
v 0.000000 0.208633 -4.641063
v 0.000000 1.234432 -4.522656
v 1.264412 1.808211 -4.522656
v 0.000000 1.013879 -5.663576
v 1.290885 1.833375 -5.663576
v 1.000000 0.642992 1.000000
v 1.000000 1.000000 0.384959
v 0.650712 1.000000 1.000000
v 4.544160 2.433502 -5.587648
v 4.544160 2.076782 -5.126157
v 3.126886 1.860259 -2.194111
v 3.126886 1.503398 -1.575473
v 0.473732 -0.798363 2.901345
v 0.237649 -0.534073 2.901345
v 0.650712 1.000000 1.000000
v 1.000000 0.642992 1.000000
v 1.000000 -0.380830 1.000000
v 0.775030 -0.598838 1.000000
v 1.000000 -0.527854 0.795042
v 1.127617 -0.515894 0.845467
v 0.248762 -0.798363 2.901345
v 0.473732 -0.798363 2.901345
v 1.954455 1.256845 -2.155665
v 1.954455 0.763695 -2.155665
v 1.954455 1.029105 -0.155762
v 1.954455 1.386047 -0.772418
v 2.401218 1.209838 -0.696752
v 2.401218 1.486780 -2.344872
v 2.401218 0.955427 -2.344872
v 2.401218 1.566749 -1.314163
v 2.401218 1.566749 -1.309659
v 1.954455 1.386047 -0.767913
v 1.954455 1.029105 -0.151258
v 2.401218 1.209838 -0.692248
v 2.695838 1.976220 -3.269000
v 1.659835 1.443021 -2.830245
v 2.695838 0.744058 -3.269000
v 1.659835 0.299448 -2.830245
v -1.000000 0.765616 -1.751446
v -1.000000 0.354082 -1.751446
v -4.544160 2.433502 -5.587648
v -4.544160 1.972011 -5.587648
v -4.544160 1.972011 -5.126157
v -3.126886 1.860259 -2.652198
v -3.126886 1.266854 -2.652198
v -3.126886 0.783534 -1.575473
v -0.973527 0.796985 -2.842619
v -1.000000 0.354082 -2.785712
v -0.759019 1.000000 -4.641063
v -0.759019 0.569169 -4.641063
v -1.264412 1.808211 -4.522656
v -1.290885 1.833375 -5.663576
v -1.000000 0.642992 1.000000
v -1.000000 1.000000 0.384959
v -0.650712 1.000000 1.000000
v -4.544160 2.433502 -5.587648
v -4.544160 2.076782 -5.126157
v -3.126886 1.860259 -2.194111
v -3.126886 1.503398 -1.575473
v -0.473732 -0.798363 2.901345
v -0.237649 -0.534073 2.901345
v -0.650712 1.000000 1.000000
v -1.000000 0.642992 1.000000
v -1.000000 -0.380830 1.000000
v -0.775030 -0.598838 1.000000
v -1.000000 -0.527854 0.795042
v -1.127617 -0.515894 0.845467
v -0.248762 -0.798363 2.901345
v -0.473732 -0.798363 2.901345
v -1.954455 1.256845 -2.155665
v -1.954455 0.763695 -2.155665
v -1.954455 1.029105 -0.155762
v -1.954455 1.386047 -0.772418
v -2.401218 1.209838 -0.696752
v -2.401218 1.486780 -2.344872
v -2.401218 0.955427 -2.344872
v -2.401218 1.566749 -1.314163
v -2.401218 1.566749 -1.309659
v -1.954455 1.386047 -0.767913
v -1.954455 1.029105 -0.151258
v -2.401218 1.209838 -0.692248
v -2.695838 1.976220 -3.269000
v -1.659835 1.443021 -2.830245
v -2.695838 0.744058 -3.269000
v -1.659835 0.299448 -2.830245
vn 0.1439 -0.9896 -0.0000
vn -0.9005 -0.0000 -0.4348
vn -0.2525 -0.8827 -0.3962
vn -0.3900 -0.0000 -0.9208
vn 0.2470 -0.9584 -0.1432
vn -0.1972 0.9580 -0.2081
vn 0.9981 0.0568 -0.0226
vn -0.0000 -0.0000 -1.0000
vn 0.9930 -0.0000 -0.1184
vn 0.4960 -0.7813 -0.3788
vn -0.5290 0.8332 -0.1611
vn 0.8474 -0.5067 -0.1583
vn -0.5975 0.6206 0.5078
vn 0.6695 0.6434 0.3711
vn 0.2478 0.8387 0.4849
vn -0.0018 1.0000 -0.0010
vn -0.4576 0.8891 -0.0000
vn 0.9287 -0.0000 0.3707
vn 1.0000 -0.0000 -0.0000
vn -0.0000 1.0000 -0.0000
vn 0.5802 0.5677 0.5841
vn -0.0000 0.7783 0.6279
vn 0.6623 0.6480 0.3761
vn -0.1524 -0.8031 0.5761
vn 0.6955 -0.7177 0.0349
vn -0.0000 -0.9945 -0.1044
vn 0.9638 -0.0000 0.2668
vn -0.0000 -0.9449 -0.3273
vn 0.1645 -0.9182 -0.3603
vn 0.7711 -0.0000 0.6368
vn -0.0000 -0.0000 1.0000
vn -0.4831 0.8717 -0.0814
vn 0.2498 0.8374 0.4861
vn -0.4791 0.8751 -0.0679
vn 0.3750 -0.9270 -0.0000
vn -0.9164 -0.0000 0.4002
vn 0.2485 0.8383 0.4853
vn -1.0000 -0.0000 -0.0000
vn -0.3749 0.9271 -0.0000
vn 0.9528 -0.0000 0.3037
vn -0.2954 0.8800 0.3719
vn 0.4887 -0.8036 0.3396
vn -0.1439 -0.9896 -0.0000
vn 0.9005 -0.0000 -0.4348
vn 0.2525 -0.8827 -0.3962
vn 0.3900 -0.0000 -0.9208
vn -0.2470 -0.9584 -0.1432
vn -0.2409 0.9703 0.0220
vn -0.9914 0.0434 -0.1237
vn -0.6418 -0.5944 -0.4845
vn 0.4132 0.9106 0.0105
vn -0.8474 -0.5067 -0.1583
vn 0.5975 0.6206 0.5078
vn -0.6695 0.6434 0.3711
vn -0.2478 0.8387 0.4849
vn 0.0010 1.0000 -0.0016
vn 0.4451 0.8928 -0.0693
vn -0.9287 -0.0000 0.3707
vn 0.3750 0.9270 -0.0000
vn -0.5802 0.5677 0.5841
vn -0.6623 0.6480 0.3761
vn -0.6186 -0.6384 0.4580
vn -0.6955 -0.7177 0.0349
vn -0.9638 -0.0000 0.2668
vn -0.2131 -0.8914 -0.4001
vn -0.7711 -0.0000 0.6368
vn 0.4712 0.8767 -0.0962
vn -0.2498 0.8374 0.4861
vn 0.4582 0.8850 -0.0827
vn -0.3750 -0.9270 -0.0000
vn 0.9164 -0.0000 0.4002
vn -0.2485 0.8383 0.4853
vn 0.3749 0.9271 -0.0000
vn -0.9528 -0.0000 0.3037
vn 0.2954 0.8800 0.3719
vn -0.4887 -0.8036 0.3396
vn 0.4455 -0.8953 -0.0000
vn 0.4291 -0.9033 -0.0000
vn 0.2409 0.9703 0.0220
vn 0.9914 0.0434 -0.1237
vn 0.6418 -0.5944 -0.4845
vn -0.4132 0.9106 0.0105
vn 0.8473 -0.5310 0.0079
vn -0.3730 0.8220 0.4302
vn 0.7530 0.5206 0.4024
vn 0.2476 0.8392 0.4841
vn 0.1463 0.9833 -0.1079
vn -0.0000 1.0000 -0.0016
vn -0.4451 0.8928 -0.0693
vn -0.3750 0.9270 -0.0000
vn 0.6077 0.5428 0.5797
vn 0.6186 -0.6384 0.4580
vn -0.1449 -0.9175 -0.3704
vn 0.2129 -0.9233 -0.3198
vn 0.2579 -0.9130 -0.3162
vn 0.2131 -0.8914 -0.4001
vn -0.4712 0.8767 -0.0962
vn 0.2493 0.8381 0.4851
vn -0.4582 0.8850 -0.0827
vn 0.2486 0.8386 0.4848
vn -0.4455 -0.8953 -0.0000
vn -0.4291 -0.9033 -0.0000
vn 0.1972 0.9580 -0.2081
vn -0.9981 0.0568 -0.0226
vn -0.9930 -0.0000 -0.1184
vn -0.4960 -0.7813 -0.3788
vn 0.5290 0.8332 -0.1611
vn -0.8473 -0.5310 0.0079
vn 0.3730 0.8220 0.4302
vn -0.7530 0.5206 0.4024
vn -0.2476 0.8392 0.4841
vn -0.1463 0.9833 -0.1079
vn 0.4576 0.8891 -0.0000
vn -0.6077 0.5428 0.5797
vn 0.1524 -0.8031 0.5761
vn 0.1449 -0.9175 -0.3704
vn -0.2129 -0.9233 -0.3198
vn -0.5571 -0.7428 -0.3714
vn 0.4831 0.8717 -0.0814
vn -0.2493 0.8381 0.4851
vn 0.4791 0.8751 -0.0679
vn -0.2486 0.8386 0.4848
vt 0.250000 0.500000
vt 0.375000 0.500000
vt 0.625000 0.500000
vt 0.375000 0.750000
vt 0.750000 0.500000
vt 0.625000 0.500000
vt 0.375000 0.375000
vt 0.625000 0.375000
vt 0.431757 0.750000
vt 0.625000 0.606361
vt 0.542142 0.750000
vt 0.624759 0.630167
vt 0.555186 0.750000
vt 0.668661 0.750000
vt 0.624293 0.676134
vt 0.702957 0.756439
vt 0.580374 0.750000
vt 0.668661 0.750000
vt 0.750000 0.750000
vt 0.411054 0.750000
vt 0.375000 0.731377
vt 0.375000 0.750000
vt 0.347232 0.750000
vt 0.250000 0.750000
vt 0.319244 0.753605
vt 0.624610 0.644823
vt 0.625000 0.500000
vt 0.563217 0.750000
vt 0.375000 0.750000
vt 0.625000 0.875000
vt 0.375000 0.875000
s 0
usemtl Material
f 3/1/1 16/2/1 2/2/1
f 10/3/2 8/2/2 11/2/2
f 11/2/3 9/4/3 12/4/3
f 49/3/4 11/2/4 50/2/4
f 18/1/5 20/2/5 16/2/5
f 6/5/6 15/6/6 17/5/6
f 1/6/7 16/2/7 15/6/7
f 22/7/8 19/6/8 20/2/8
f 15/6/9 20/2/9 19/6/9
f 19/6/10 25/8/10 26/6/10
f 23/5/11 26/6/11 25/5/11
f 19/6/12 24/6/12 15/6/12
f 15/6/13 23/5/13 17/5/13
f 31/9/14 32/10/14 33/11/14
f 33/11/15 51/12/15 48/13/15
f 6/5/16 29/14/16 28/15/16
f 49/3/17 32/10/17 10/3/17
f 33/11/18 9/4/18 31/9/18
f 8/2/19 7/6/19 31/9/19
f 10/3/20 30/6/20 7/6/20
f 35/16/21 37/17/21 36/18/21
f 36/18/22 4/19/22 35/16/22
f 28/15/23 29/14/23 37/17/23
f 38/20/24 40/21/24 41/22/24
f 43/4/25 39/23/25 38/20/25
f 5/24/26 42/25/26 13/24/26
f 38/20/27 37/17/27 34/4/27
f 2/2/28 39/23/28 5/24/28
f 40/21/29 50/2/29 12/4/29
f 38/20/30 12/4/30 48/13/30
f 42/25/31 34/4/31 35/16/31
f 1/6/32 47/26/32 44/27/32
f 46/28/33 28/15/33 27/17/33
f 1/6/4 45/2/4 2/2/4
f 44/27/34 51/12/34 49/3/34
f 46/28/35 55/13/35 54/28/35
f 45/2/36 57/27/36 59/2/36
f 55/13/37 53/26/37 54/28/37
f 46/28/38 53/26/38 47/26/38
f 47/26/39 52/12/39 51/12/39
f 48/13/19 52/12/19 55/13/19
f 57/27/4 58/2/4 59/2/4
f 49/3/40 58/2/40 56/3/40
f 49/3/41 57/27/41 44/27/41
f 50/2/42 59/2/42 58/2/42
f 69/2/43 3/1/43 61/2/43
f 63/2/44 65/3/44 66/2/44
f 64/4/45 66/2/45 67/4/45
f 66/2/46 96/3/46 97/2/46
f 71/2/47 18/1/47 69/2/47
f 6/5/48 68/6/48 60/6/48
f 60/6/38 69/2/38 61/2/38
f 22/7/31 70/6/31 21/8/31
f 68/6/49 71/2/49 69/2/49
f 70/6/50 25/8/50 21/8/50
f 23/5/51 73/6/51 72/6/51
f 72/6/52 70/6/52 68/6/52
f 23/5/53 68/6/53 17/5/53
f 79/10/54 78/9/54 80/11/54
f 98/12/55 80/11/55 95/13/55
f 75/15/56 4/19/56 6/5/56
f 96/3/57 79/10/57 98/12/57
f 80/11/58 64/4/58 67/4/58
f 63/2/38 78/9/38 77/6/38
f 65/3/59 77/6/59 79/10/59
f 84/17/60 82/16/60 83/18/60
f 82/16/22 4/19/22 76/14/22
f 84/17/61 83/18/61 75/15/61
f 85/20/62 87/21/62 86/23/62
f 86/23/63 90/4/63 85/20/63
f 5/24/26 89/25/26 86/23/26
f 85/20/64 81/4/64 84/17/64
f 5/24/28 87/21/28 61/2/28
f 67/4/65 97/2/65 61/2/65
f 95/13/66 67/4/66 85/20/66
f 89/25/31 82/16/31 81/4/31
f 60/6/67 94/26/67 75/15/67
f 75/15/68 93/28/68 74/17/68
f 92/2/46 60/6/46 61/2/46
f 91/27/69 98/12/69 94/26/69
f 93/28/70 102/13/70 95/13/70
f 92/2/71 104/27/71 91/27/71
f 100/26/72 102/13/72 101/28/72
f 100/26/19 93/28/19 94/26/19
f 99/12/73 94/26/73 98/12/73
f 95/13/38 99/12/38 98/12/38
f 105/2/46 104/27/46 106/2/46
f 96/3/74 105/2/74 97/2/74
f 104/27/75 96/3/75 91/27/75
f 97/2/76 106/2/76 92/2/76
f 3/1/1 18/1/1 16/2/1
f 10/3/2 7/6/2 8/2/2
f 11/2/77 8/2/77 9/4/77
f 49/3/4 10/3/4 11/2/4
f 18/1/78 22/1/78 20/2/78
f 6/5/79 1/6/79 15/6/79
f 1/6/19 2/2/19 16/2/19
f 22/7/31 21/8/31 19/6/31
f 15/6/80 16/2/80 20/2/80
f 19/6/81 21/8/81 25/8/81
f 23/5/82 24/6/82 26/6/82
f 19/6/83 26/6/83 24/6/83
f 15/6/84 24/6/84 23/5/84
f 31/9/85 30/6/85 32/10/85
f 33/11/86 32/10/86 51/12/86
f 28/15/87 1/6/87 6/5/87
f 6/5/88 4/19/88 29/14/88
f 49/3/89 51/12/89 32/10/89
f 33/11/18 12/4/18 9/4/18
f 31/9/19 9/4/19 8/2/19
f 7/6/20 30/6/20 31/9/20
f 10/3/90 32/10/90 30/6/90
f 35/16/91 34/29/91 37/17/91
f 4/19/22 14/19/22 35/16/22
f 36/18/20 29/14/20 4/19/20
f 37/17/20 27/17/20 28/15/20
f 29/14/20 36/18/20 37/17/20
f 38/20/92 39/23/92 40/21/92
f 43/4/26 42/25/26 39/23/26
f 5/24/26 39/23/26 42/25/26
f 38/20/20 27/17/20 37/17/20
f 34/4/20 43/4/20 38/20/20
f 5/24/93 3/1/93 2/2/93
f 2/2/28 40/21/28 39/23/28
f 12/4/94 41/22/94 40/21/94
f 40/21/95 2/2/95 45/2/95
f 50/2/96 11/2/96 12/4/96
f 40/21/95 45/2/95 50/2/95
f 46/28/30 27/17/30 38/20/30
f 38/20/30 41/22/30 12/4/30
f 12/4/30 33/11/30 48/13/30
f 48/13/30 46/28/30 38/20/30
f 35/16/31 14/30/31 13/31/31
f 35/16/31 13/31/31 42/25/31
f 42/25/20 43/4/20 34/4/20
f 1/6/97 28/15/97 47/26/97
f 46/28/98 47/26/98 28/15/98
f 1/6/4 44/27/4 45/2/4
f 44/27/99 47/26/99 51/12/99
f 46/28/35 48/13/35 55/13/35
f 45/2/36 44/27/36 57/27/36
f 55/13/100 52/12/100 53/26/100
f 46/28/38 54/28/38 53/26/38
f 47/26/90 53/26/90 52/12/90
f 48/13/19 51/12/19 52/12/19
f 57/27/4 56/3/4 58/2/4
f 49/3/40 50/2/40 58/2/40
f 49/3/41 56/3/41 57/27/41
f 50/2/42 45/2/42 59/2/42
f 69/2/43 18/1/43 3/1/43
f 63/2/44 62/6/44 65/3/44
f 64/4/101 63/2/101 66/2/101
f 66/2/46 65/3/46 96/3/46
f 71/2/102 22/1/102 18/1/102
f 6/5/103 17/5/103 68/6/103
f 60/6/104 68/6/104 69/2/104
f 22/7/8 71/2/8 70/6/8
f 68/6/105 70/6/105 71/2/105
f 70/6/106 73/6/106 25/8/106
f 23/5/107 25/5/107 73/6/107
f 72/6/108 73/6/108 70/6/108
f 23/5/109 72/6/109 68/6/109
f 79/10/110 77/6/110 78/9/110
f 98/12/111 79/10/111 80/11/111
f 6/5/112 60/6/112 75/15/112
f 75/15/20 76/14/20 4/19/20
f 96/3/113 65/3/113 79/10/113
f 80/11/58 78/9/58 64/4/58
f 63/2/38 64/4/38 78/9/38
f 77/6/20 62/6/20 63/2/20
f 65/3/20 62/6/20 77/6/20
f 84/17/114 81/29/114 82/16/114
f 82/16/22 14/19/22 4/19/22
f 76/14/20 83/18/20 82/16/20
f 75/15/20 74/17/20 84/17/20
f 83/18/20 76/14/20 75/15/20
f 85/20/115 88/22/115 87/21/115
f 86/23/26 89/25/26 90/4/26
f 5/24/26 13/24/26 89/25/26
f 85/20/20 90/4/20 81/4/20
f 84/17/20 74/17/20 85/20/20
f 61/2/116 3/1/116 5/24/116
f 5/24/28 86/23/28 87/21/28
f 87/21/117 88/22/117 67/4/117
f 67/4/65 66/2/65 97/2/65
f 97/2/118 92/2/118 61/2/118
f 61/2/117 87/21/117 67/4/117
f 85/20/66 74/17/66 93/28/66
f 95/13/66 80/11/66 67/4/66
f 85/20/66 93/28/66 95/13/66
f 67/4/66 88/22/66 85/20/66
f 89/25/31 13/31/31 14/30/31
f 89/25/31 14/30/31 82/16/31
f 81/4/20 90/4/20 89/25/20
f 60/6/119 91/27/119 94/26/119
f 75/15/120 94/26/120 93/28/120
f 92/2/46 91/27/46 60/6/46
f 91/27/121 96/3/121 98/12/121
f 93/28/70 101/28/70 102/13/70
f 92/2/71 106/2/71 104/27/71
f 100/26/122 99/12/122 102/13/122
f 100/26/19 101/28/19 93/28/19
f 99/12/59 100/26/59 94/26/59
f 95/13/38 102/13/38 99/12/38
f 105/2/46 103/3/46 104/27/46
f 96/3/74 103/3/74 105/2/74
f 104/27/75 103/3/75 96/3/75
f 97/2/76 105/2/76 106/2/76
